Coordinates
version=1
nRows=13
nColumns=40
inDegrees=yes

Units are S.I. units (second, meters, Newtons, ...)
Angles are in degrees.

endheader
time	pelvis_tilt	pelvis_list	pelvis_rotation	pelvis_tx	pelvis_ty	pelvis_tz	hip_flexion_r	hip_adduction_r	hip_rotation_r	knee_angle_r	knee_angle_r_beta	ankle_angle_r	subtalar_angle_r	mtp_angle_r	hip_flexion_l	hip_adduction_l	hip_rotation_l	knee_angle_l	knee_angle_l_beta	ankle_angle_l	subtalar_angle_l	mtp_angle_l	lumbar_extension	lumbar_bending	lumbar_rotation	arm_flex_r	arm_add_r	arm_rot_r	elbow_flex_r	pro_sup_r	wrist_flex_r	wrist_dev_r	arm_flex_l	arm_add_l	arm_rot_l	elbow_flex_l	pro_sup_l	wrist_flex_l	wrist_dev_l
      0.00000000	      2.16994978	     11.64505866	     86.26177467	      0.55735256	      1.02456642	     -0.91296141	    -15.22224957	     -2.73926540	     -6.90349672	      0.35214819	      0.00614615	      5.78286190	      0.00000000	      0.00000000	    -17.13657002	     -5.06134053	    -11.02606921	      0.26959786	      0.00470537	      7.92864892	      0.00000000	      0.00000000	    -19.83123885	      1.71554336	     -0.91532675	      6.94554779	    -68.10055548	    -20.36974229	     98.76185431	     88.87120646	      0.00000000	      0.00000000	    -40.93135894	    -60.11287870	    -65.29028396	     99.70933964	     88.80293874	      0.00000000	      0.00000000
      0.01000000	      2.19337677	     11.66740720	     86.22440527	      0.55739198	      1.02458741	     -0.91298329	    -15.24459849	     -2.72064829	     -6.84428919	      0.35477732	      0.00619203	      5.76833699	      0.00000000	      0.00000000	    -17.17143507	     -5.07399695	    -11.07288609	      0.26924365	      0.00469919	      7.92127928	      0.00000000	      0.00000000	    -19.88307857	      1.72508977	     -0.84672465	      6.79558762	    -68.10356607	    -20.54900115	     98.78973101	     88.87211954	      0.00000000	      0.00000000	    -40.81919818	    -60.13832948	    -65.19748417	     99.69413403	     88.79873642	      0.00000000	      0.00000000
      0.02000000	      2.21358546	     11.64651404	     86.18702174	      0.55743509	      1.02460531	     -0.91290701	    -15.20978623	     -2.70965332	     -6.76681231	      0.35803038	      0.00624881	      5.79209625	      0.00000000	      0.00000000	    -17.15262380	     -5.09443334	    -11.04491051	      0.27041047	      0.00471955	      7.90465020	      0.00000000	      0.00000000	    -19.89442213	      1.73447580	     -0.76535396	      6.68731344	    -68.04809545	    -20.74242948	     98.80144797	     88.86602472	      0.00000000	      0.00000000	    -40.68527584	    -60.17427032	    -65.06568676	     99.67597663	     88.79550562	      0.00000000	      0.00000000
      0.03000000	      2.21756988	     11.72656222	     86.20083694	      0.55732972	      1.02466943	     -0.91319079	    -15.32747379	     -2.71321397	     -6.81837061	      0.35146668	      0.00613425	      5.81195992	      0.00000000	      0.00000000	    -17.26321330	     -5.08845100	    -11.05781008	      0.26815559	      0.00468020	      7.95105632	      0.00000000	      0.00000000	    -19.97159603	      1.74106832	     -0.76678006	      6.58641962	    -68.06609203	    -20.84847145	     98.83020514	     88.86126714	      0.00000000	      0.00000000	    -40.66703642	    -60.20120181	    -65.02664398	     99.68169295	     88.77689287	      0.00000000	      0.00000000
      0.04000000	      2.20831897	     11.72670248	     86.27941846	      0.55716437	      1.02466182	     -0.91350283	    -15.36271172	     -2.70692510	     -6.92428008	      0.34443899	      0.00601159	      5.82017327	      0.00000000	      0.00000000	    -17.27127076	     -5.09474440	    -10.96078557	      0.26828502	      0.00468246	      8.01415669	      0.00000000	      0.00000000	    -19.94971739	      1.75756474	     -0.87384389	      6.65795753	    -68.05756753	    -20.73777130	     98.83609026	     88.86332322	      0.00000000	      0.00000000	    -40.71631132	    -60.15437616	    -65.05341011	     99.70264822	     88.78673602	      0.00000000	      0.00000000
      0.05000000	      2.25275660	     11.76494133	     86.15523524	      0.55722505	      1.02469688	     -0.91350997	    -15.38252079	     -2.69525613	     -6.71970132	      0.35010109	      0.00611042	      5.80682791	      0.00000000	      0.00000000	    -17.34092691	     -5.09432544	    -11.16070137	      0.26581636	      0.00463937	      8.00430702	      0.00000000	      0.00000000	    -20.01572363	      1.78734180	     -0.70665353	      6.42719759	    -68.19356291	    -20.91778420	     98.85986454	     88.86291754	      0.00000000	      0.00000000	    -40.48237508	    -60.18150563	    -64.85347340	     99.65843111	     88.78743095	      0.00000000	      0.00000000
      0.06000000	      2.25714475	     10.99414451	     85.72439100	      0.55762817	      1.02409364	     -0.91260247	    -14.08760295	     -2.78885312	     -6.24815414	      0.96392931	      0.01682374	      5.89157403	      0.00000000	      0.00000000	    -16.31609613	     -5.07766378	    -11.62571118	      0.70502891	      0.01230508	      8.04289255	      0.00000000	      0.00000000	    -19.26474096	      1.77533385	     -0.25548548	      6.54735728	    -68.05686980	    -20.72051742	     98.81505415	     86.95769271	      0.00000000	      0.00000000	    -39.54454615	    -59.94241037	    -63.91631763	     99.50698892	     86.77720721	      0.00000000	      0.00000000
      0.07000000	      2.21946345	     11.68560917	     86.22476749	      0.55725316	      1.02462504	     -0.91355003	    -15.29843812	     -2.69906688	     -6.81982715	      0.35233566	      0.00614942	      5.79106751	      0.00000000	      0.00000000	    -17.22978515	     -5.08974694	    -11.03020344	      0.27096414	      0.00472922	      7.99827342	      0.00000000	      0.00000000	    -19.96786602	      1.74149201	     -0.88177429	      6.90782190	    -68.02820335	    -20.51187398	     98.78982906	     88.86295713	      0.00000000	      0.00000000	    -40.74507331	    -60.09100109	    -65.14088537	     99.70797745	     88.79178747	      0.00000000	      0.00000000
      0.08000000	      2.22917975	     11.62726435	     86.16100153	      0.55720252	      1.02452173	     -0.91370451	    -15.23014255	     -2.71058170	     -6.73959824	      0.35548481	      0.00620438	      5.81288638	      0.00000000	      0.00000000	    -17.19461273	     -5.07842641	    -11.05543341	      0.27181414	      0.00474405	      8.04165219	      0.00000000	      0.00000000	    -19.90026238	      1.76109786	     -0.76395058	      6.67541192	    -68.09190341	    -20.70825495	     98.82145614	     88.87232044	      0.00000000	      0.00000000	    -40.39818685	    -60.10029963	    -64.81039779	     99.63238787	     88.79208317	      0.00000000	      0.00000000
      0.09000000	      2.26680553	     10.91781742	     85.73439546	      0.55763202	      1.02393967	     -0.91311231	    -14.05642439	     -2.76693540	     -6.24433476	      0.92587019	      0.01615948	      5.92247926	      0.00000000	      0.00000000	    -16.27918668	     -5.09942213	    -11.54125666	      0.67241268	      0.01173582	      8.04798712	      0.00000000	      0.00000000	    -19.19878784	      1.76833631	     -0.24728817	      6.30156467	    -67.95950159	    -21.00351577	     98.89421618	     87.10005439	      0.00000000	      0.00000000	    -39.46783632	    -59.93730202	    -63.84353793	     99.52688134	     86.92755236	      0.00000000	      0.00000000
      0.10000000	      2.19636866	     11.63304033	     86.21780022	      0.55721676	      1.02452376	     -0.91410549	    -15.27803046	     -2.72278338	     -6.84318251	      0.35432384	      0.00618412	      5.88078418	      0.00000000	      0.00000000	    -17.21032459	     -5.06541104	    -11.03407304	      0.26838497	      0.00468420	      7.95240578	      0.00000000	      0.00000000	    -19.93008138	      1.70956513	     -0.73800488	      6.03946850	    -67.97541979	    -21.41657364	     98.98380491	     88.86131793	      0.00000000	      0.00000000	    -40.30473871	    -60.21005959	    -64.71192720	     99.64039814	     88.78939087	      0.00000000	      0.00000000
      0.11000000	      2.21276761	     11.59428490	     86.18269369	      0.55712534	      1.02447172	     -0.91419700	    -15.23345768	     -2.72387638	     -6.79073157	      0.35693427	      0.00622968	      5.80024678	      0.00000000	      0.00000000	    -17.18339384	     -5.06468719	    -11.08024857	      0.26911380	      0.00469692	      7.98350242	      0.00000000	      0.00000000	    -19.87588531	      1.74245012	     -0.71820879	      6.23928768	    -67.99562165	    -21.20031260	     98.90450964	     88.87452100	      0.00000000	      0.00000000	    -40.19969468	    -60.16042145	    -64.57470668	     99.59070194	     88.80804148	      0.00000000	      0.00000000
      0.12000000	      2.22580736	     10.85626300	     85.69447615	      0.55755438	      1.02386612	     -0.91350914	    -13.99457036	     -2.82830273	     -6.15881852	      0.95540660	      0.01667499	      6.02750462	      0.00000000	      0.00000000	    -16.23563620	     -5.02870534	    -11.63156984	      0.68436848	      0.01194448	      8.15281100	      0.00000000	      0.00000000	    -19.11573179	      1.73223235	     -0.21994701	      6.39047270	    -67.89331979	    -20.92128669	     98.82329711	     87.07867469	      0.00000000	      0.00000000	    -39.24541378	    -59.90479622	    -63.58809645	     99.43595121	     86.90471985	      0.00000000	      0.00000000
